<?xml version="1.0" encoding="utf-8"?>
<!-- Generator: Adobe Illustrator 17.0.0, SVG Export Plug-In . SVG Version: 6.00 Build 0)  -->
<!DOCTYPE svg PUBLIC "-//W3C//DTD SVG 1.1//EN" "http://www.w3.org/Graphics/SVG/1.1/DTD/svg11.dtd">
<svg version="1.1" id="Layer_1" xmlns="http://www.w3.org/2000/svg" xmlns:xlink="http://www.w3.org/1999/xlink" x="0px" y="0px"
	 width="512px" height="512px" viewBox="0 0 512 512" enable-background="new 0 0 512 512" xml:space="preserve">
<g>
	<path fill="#1FA67A" d="M498.5,468.5c0,16.5-13.5,30-30,30h-425c-16.5,0-30-13.5-30-30v-425c0-16.5,13.5-30,30-30h425
		c16.5,0,30,13.5,30,30V468.5z"/>
</g>
<path fill="#FFFFFF" d="M119.672,112.55c0,10.684-4.748,18.845-14.245,24.484v281.784c0,1.929-0.705,3.598-2.115,5.008
	c-1.41,1.41-3.079,2.115-5.008,2.115H84.06c-1.929,0-3.598-0.705-5.008-2.115s-2.114-3.079-2.114-5.008V137.033
	c-9.497-5.639-14.245-13.8-14.245-24.484c0-7.864,2.782-14.579,8.347-20.143c5.564-5.564,12.279-8.347,20.143-8.347
	s14.579,2.782,20.143,8.347C116.89,97.971,119.672,104.685,119.672,112.55z M447.308,126.795v169.827
	c0,3.71-0.927,6.566-2.782,8.569s-4.785,4.043-8.792,6.121c-31.903,17.213-59.28,25.819-82.131,25.819
	c-9.052,0-18.214-1.632-27.488-4.897c-9.274-3.264-17.324-6.826-24.15-10.684s-15.395-7.419-25.708-10.684
	c-10.313-3.264-20.885-4.897-31.717-4.897c-28.49,0-62.916,10.832-103.276,32.496c-2.523,1.335-4.971,2.003-7.345,2.003
	c-3.858,0-7.197-1.41-10.016-4.229s-4.229-6.158-4.229-10.016V161.072c0-4.748,2.3-8.829,6.9-12.242
	c3.116-2.077,8.977-5.268,17.584-9.571c35.019-17.806,66.254-26.709,93.706-26.709c15.877,0,30.716,2.152,44.516,6.455
	s30.048,10.832,48.745,19.587c5.639,2.819,12.168,4.229,19.587,4.229c8.013,0,16.73-1.558,26.153-4.674
	c9.423-3.116,17.584-6.603,24.484-10.461c6.9-3.858,13.429-7.345,19.587-10.461c6.158-3.116,10.202-4.674,12.131-4.674
	c3.858,0,7.197,1.41,10.016,4.229C445.898,119.598,447.308,122.937,447.308,126.795z"/>
</svg>
